<svg xmlns="http://www.w3.org/2000/svg" viewBox="0 0 100 100">
  <!-- Background circle -->
  <circle cx="50" cy="50" r="48" fill="#FFD700" stroke="#FFC107" stroke-width="2"/>
  
  <!-- Mountain -->
  <path d="M 20 60 L 35 40 L 50 50 L 65 30 L 80 60 Z" fill="#2E7D32" opacity="0.9"/>
  
  <!-- Sun -->
  <circle cx="75" cy="25" r="8" fill="#FFE082"/>
  <circle cx="75" cy="25" r="6" fill="#FFD700"/>
  
  <!-- Ocean/Waves -->
  <path d="M 20 60 Q 25 55 30 60 T 40 60 T 50 60 T 60 60 T 70 60 T 80 60 L 80 100 L 20 100 Z" fill="#1976D2" opacity="0.8"/>
  <path d="M 25 70 Q 30 65 35 70 T 45 70 T 55 70 T 65 70 T 75 70" stroke="#64B5F6" stroke-width="2" fill="none" opacity="0.6"/>
  
  <!-- Palm tree -->
  <rect x="45" y="55" width="3" height="8" fill="#5D4037"/>
  <path d="M 46.5 55 Q 42 50 38 55 Q 46.5 50 46.5 55" fill="#4CAF50"/>
  <path d="M 46.5 55 Q 51 50 55 55 Q 46.5 50 46.5 55" fill="#4CAF50"/>
</svg>

